<svg id="Layer_1" data-name="Layer 1" xmlns="http://www.w3.org/2000/svg" viewBox="0 0 2253.1 2021.48"><defs><style>.cls-1{fill:#f15a24;}.cls-1,.cls-2{fill-rule:evenodd;}.cls-2{fill:#e6e6e6;}</style></defs><path class="cls-1" d="M2268.66,986.88h0l4.91-3.77,1.55-1.18,6.51-5,4.9-3.77,1.67-1.28,6.6-5.08,4.89-3.76,1.78-1.36,6.72-5.17,4.86-3.74,1.9-1.46,6.81-5.24,4.83-3.72,2-1.55,6.89-5.3,4.8-3.68,2.14-1.65,7-5.36,4.75-3.65,2.26-1.73,7-5.4,4.7-3.6,2.38-1.83,7.1-5.44,4.63-3.55,2.5-1.92,7.16-5.48,4.57-3.49,2.62-2,7.2-5.5,4.5-3.43,2.73-2.09,7.25-5.52,4.43-3.36,2.84-2.16,7.28-5.54,4.34-3.29,3-2.24,7.31-5.54,4.26-3.21q14.25-10.76,28.56-21.48l.58-.44,3.28-2.46L2494,815l4-3,3.38-2.52,7.35-5.46,3.86-2.87,3.48-2.58,7.34-5.42,3.74-2.78,3.59-2.63,7.32-5.38,3.64-2.67,3.67-2.69q12.35-9,24.61-17.9l.64-.47,3.84-2.77q12-8.65,23.89-17.11l1.94-1.37,12.91-9.14.51-.36,13-9.13,1.79-1.24,11.78-8.17,2.39-1.64,12.07-8.28,1-.7,12.45-8.43,1.38-.92,10.15-6.79,2.41-1.6.93-.61q12.48-8.28,24.6-16.06l1.89-1.22,9.68-6.17L2049.78,968.3q-21-.49-42.28-.49c-618,0-1119,311.74-1119,696.3,0,121.25,49.84,235.25,137.43,334.53h0L883.92,2403s-56.58,150.18,93.29,275.41c-33.8-76.9-41.81-159.87,27.78-220.59q3.88-3.4,8-6.85l.51-.42q3.9-3.26,8-6.56l.84-.67q4.26-3.39,8.75-6.84l.11-.09.12-.09.43-.32c3-2.28,6-4.56,9.1-6.87l.84-.62c3.07-2.28,6.22-4.57,9.42-6.88l.76-.55c3.32-2.38,6.71-4.79,10.17-7.2l.27-.2.5-.34q5.19-3.63,10.58-7.3l.4-.27q5.31-3.63,10.8-7.28l1-.69q5.54-3.67,11.24-7.4l.47-.31.59-.38q5.52-3.6,11.19-7.21l1.55-1c3.62-2.31,7.28-4.62,11-7l1-.63,1.25-.78,11.27-7,.69-.43.43-.26q12.57-7.74,25.72-15.59l1.23-.74,1.16-.69,12-7.15h0l.91-.54,2-1.16,9.37-5.49,3.06-1.78,1.08-.63,12-7,1.53-.87,1-.6,12.71-7.27,1.15-.65.51-.29,13.87-7.84.73-.41,3.09-1.74,10.81-6.05,1.39-.77.88-.49.86-.49,12.35-6.85,1.38-.76.1-.05,15.23-8.37.29-.17,3-1.64,6.72-3.67,6-3.29.71-.39,6.76-3.66,6.78-3.66,1.62-.88,5.18-2.8,6.81-3.66,4-2.13,2.85-1.53,6.85-3.66,6.34-3.39.5-.27,6.87-3.65,6.87-3.65,1.84-1,5-2.66,0,0h0c197.08-104.31,400.43-202.07,447.31-241.15,60.84-50.71,107-151.87,126.68-200.42q4.57-13.51,10.39-27.13l0-.11h0a462.39,462.39,0,0,1,45.1-80.89c38.67-56,91.86-109.58,157-154.81,108.29-75.17,195.81-149,284.14-157a39.94,39.94,0,0,1,26.39,72.58L2243.33,1600.2a53.76,53.76,0,0,0,61.31,88.32l290-201.28a39.88,39.88,0,0,1,54,7.88q5.28,6.62,10.64,13.67c.72,1,1.32,1.8,2,2.82q4.74,7.48,9.08,14.74a39.88,39.88,0,0,1-11.49,53.32l-290,201.28a53.75,53.75,0,0,0,61.3,88.31l221.52-153.75a39.94,39.94,0,0,1,58.76,50.11c-38.42,79.93-138.19,136.11-246.49,211.28-65.16,45.23-134,76.32-199.94,93a463.54,463.54,0,0,1-91.55,14h-.13q-14.78.68-29,.25c-52.37,1.45-163.29,9.33-232.06,48.6-36.44,20.8-124.72,101.18-230.47,197.52h0l-4.67,4.26-4.69,4.27-.5.46-4.21,3.83-4.73,4.31-3.84,3.5-.91.83-4.78,4.34-4.78,4.36-2.46,2.23-2.35,2.14-4.83,4.39-4.84,4.41-1,.93-3.83,3.47-4.88,4.44-4.46,4-.43.39-4.9,4.44-4.92,4.46-3,2.74-1.9,1.73-5,4.47-5,4.48-1.57,1.41-3.39,3.06-5,4.49-5,4.5-.09.08-4.91,4.41-5,4.5-3.6,3.24-1.41,1.26-5,4.5-5,4.5-2.11,1.9-2.91,2.6-5,4.5-5,4.49-.62.55-4.43,3.94-5,4.5-4.16,3.69-.88.79-5,4.47-5,4.47-2.65,2.35-2.4,2.11-5,4.46-5.05,4.45-1.14,1-3.91,3.43-5,4.43-4.68,4.09-.36.32-5,4.4-5,4.38-3.17,2.76-1.86,1.62-5,4.36-5,4.34-1.65,1.44-3.35,2.88-5,4.32-5,4.29-.16.13-4.82,4.14-5,4.25-3.65,3.11-1.31,1.12-9.91,8.4-2.15,1.81-.25.21-7.46,6.28-4.91,4.11-.67.57-1,.82-8.12,6.77-4.08,3.38-.78.65-4.85,4-4.83,4-.25.2-4,3.31-10.13,8.25c176.36-76.79,364.12-193.2,461.58-256.6h0a1796.08,1796.08,0,0,0,181.15,9.09c618,0,1119.05-311.74,1119.05-696.29,0-209-148.05-396.52-382.43-524.14l0,0c106.71-105.16,229.95-242.67,229.95-242.67l-1.64,1.06-1.29.82q-9.63,6.18-20.15,12.5l-1,.58q-5,3-10.22,6l-1.78,1q-5,2.9-10.18,5.84l-1.2.68L2916,931.78l-1.09.61-1,.53L2902.74,939l-.54.3-1.26.67c-3.78,2-7.61,4.07-11.49,6.12l-.94.5q-12.12,6.36-24.81,12.81l-1.93,1-.55.28q-13.66,6.92-27.95,13.91l-.36.17-14.59,7.09-.33.16-14,6.72-1.52.73L2788,996.26l0,0-12.21,5.7-3.34,1.55-2.85,1.31-12.46,5.73-.45.21-.3.14q-15.3,7-30.92,14l-.86.39-5.55,2.48-10.74,4.79-2.14,1q-15.28,6.79-30.8,13.55l-1.76.78c-21.53,9.39-43.28,18.75-65.06,28l-.94.4v0h0c-201.09,85.51-404.38,163.5-453.34,197.84-179,125.56-98.39,273-376.56,433.56-204.46,118-431,108.49-505.92-21.35s30-330.77,234.47-448.81c278.16-160.6,365.5-17.06,563.76-109.33,32.61-15.18,106.81-70.81,198.74-141.32Z" transform="translate(-873.45 -656.93)"/><path class="cls-2" d="M1919.15,1517.09c-230.72,279.07-605.12,189.28-505.65-58s417.23-228,534.66-239,207.24-96.71,207.24-96.71l407.86-357.68L2516,798.58l-247.37,188.3c-91.93,70.51-166.13,126.14-198.74,141.32-198.26,92.27-285.6-51.27-563.76,109.33-204.46,118-309.43,319-234.47,448.81s301.46,139.39,505.92,21.35c278.17-160.6,197.52-308,376.56-433.56,49-34.34,252.25-112.33,453.39-197.86,30.29-12.92,64.71-27.71,100.7-43.69C1934.86,1319,2149.87,1238,1919.15,1517.09" transform="translate(-873.45 -656.93)"/><path class="cls-2" d="M1956.44,1913.62c102.23-182.37,187.89-138.15,259.73-52.5s45.59,171.32-87,181-205.85,31.78-320.52,116.05-443.84,449.77-443.84,449.77L1478.2,2512l202.49-181.82c105.75-96.34,194-176.72,230.47-197.52,74.12-42.32,195.63-48.85,261.23-48.85,3.3-1.46,134.39,2.09,291.49-106.95,108.3-75.17,208.07-131.35,246.49-211.28,17.71-36.84-25.2-73.4-58.76-50.11l-221.52,153.75a53.75,53.75,0,0,1-61.3-88.31l290-201.28a39.88,39.88,0,0,0,11.49-53.32l-21.67-31.23a39.88,39.88,0,0,0-54-7.88l-290,201.28a53.76,53.76,0,0,1-61.31-88.32l221.51-153.75c33.56-23.3,14.3-76.28-26.39-72.58-88.33,8-175.85,81.87-284.14,157-87.75,60.91-162.87,143.84-202.13,235.7-21.08,59.73-73.51,174.64-137.11,227.66-46.88,39.08-250.23,136.84-447.34,241.14l-5.07,2.7C1261,2292,1098,2380.53,1013.55,2450.56c-76,63-73.63,141.49-37.5,225.19-8.6-21.59-52.92-171,288.22-325.57C1633.14,2183,1854.2,2096,1956.44,1913.62" transform="translate(-873.45 -656.93)"/></svg>