<svg width="1200" height="700" viewBox="0 0 1200 700" fill="none" xmlns="http://www.w3.org/2000/svg">
    <defs>
        <linearGradient id="bg" x1="50" y1="20" x2="1150" y2="680" gradientUnits="userSpaceOnUse">
            <stop offset="0" stop-color="#0F172A" />
            <stop offset="0.52" stop-color="#1E3A8A" />
            <stop offset="1" stop-color="#134E4A" />
        </linearGradient>
        <radialGradient id="glowA" cx="0" cy="0" r="1" gradientUnits="userSpaceOnUse"
            gradientTransform="translate(310 180) rotate(42) scale(360 320)">
            <stop stop-color="#38BDF8" stop-opacity="0.85" />
            <stop offset="1" stop-color="#38BDF8" stop-opacity="0" />
        </radialGradient>
        <radialGradient id="glowB" cx="0" cy="0" r="1" gradientUnits="userSpaceOnUse"
            gradientTransform="translate(900 520) rotate(-20) scale(430 280)">
            <stop stop-color="#34D399" stop-opacity="0.75" />
            <stop offset="1" stop-color="#34D399" stop-opacity="0" />
        </radialGradient>
    </defs>

    <rect width="1200" height="700" rx="40" fill="url(#bg)" />
    <rect width="1200" height="700" rx="40" fill="url(#glowA)" />
    <rect width="1200" height="700" rx="40" fill="url(#glowB)" />

    <path d="M-80 500C140 420 260 350 430 400C610 455 720 610 930 590C1060 577 1160 515 1280 430V700H-80V500Z"
        fill="#1D4ED8" fill-opacity="0.32" />
    <path d="M-120 235C55 130 220 160 350 248C500 350 670 370 860 298C990 248 1090 190 1250 200V-40H-120V235Z"
        fill="#22D3EE" fill-opacity="0.16" />

    <circle cx="1010" cy="150" r="8" fill="#BAE6FD" fill-opacity="0.88" />
    <circle cx="1060" cy="110" r="5" fill="#CCFBF1" fill-opacity="0.82" />
    <circle cx="960" cy="95" r="4" fill="#E0F2FE" fill-opacity="0.78" />
</svg>