<svg width="1200" height="700" viewBox="0 0 1200 700" fill="none" xmlns="http://www.w3.org/2000/svg">
    <defs>
        <linearGradient id="sky" x1="70" y1="24" x2="1130" y2="676" gradientUnits="userSpaceOnUse">
            <stop offset="0" stop-color="#111827" />
            <stop offset="0.6" stop-color="#1F2937" />
            <stop offset="1" stop-color="#312E81" />
        </linearGradient>
        <linearGradient id="glow" x1="0" y1="0" x2="1" y2="1">
            <stop offset="0" stop-color="#FCA5A5" stop-opacity="0.28" />
            <stop offset="1" stop-color="#A78BFA" stop-opacity="0.05" />
        </linearGradient>
    </defs>
    <rect width="1200" height="700" rx="40" fill="url(#sky)" />
    <rect x="86" y="502" width="140" height="198" fill="#0B1220" />
    <rect x="248" y="450" width="168" height="250" fill="#0E172A" />
    <rect x="438" y="390" width="174" height="310" fill="#111C34" />
    <rect x="638" y="470" width="160" height="230" fill="#0E172A" />
    <rect x="822" y="420" width="152" height="280" fill="#111C34" />
    <rect x="996" y="486" width="126" height="214" fill="#0B1220" />
    <path d="M0 700H1200V560C1038 598 912 606 748 583C600 562 510 495 360 482C226 470 118 496 0 542V700Z"
        fill="url(#glow)" />
    <rect x="278" y="476" width="10" height="14" fill="#93C5FD" fill-opacity="0.55" />
    <rect x="458" y="420" width="12" height="16" fill="#FDE68A" fill-opacity="0.5" />
    <rect x="676" y="520" width="10" height="14" fill="#FCA5A5" fill-opacity="0.42" />
    <rect x="852" y="456" width="10" height="14" fill="#A7F3D0" fill-opacity="0.45" />
</svg>