<svg width="1200" height="700" viewBox="0 0 1200 700" fill="none" xmlns="http://www.w3.org/2000/svg">
    <defs>
        <linearGradient id="base" x1="70" y1="40" x2="1140" y2="670" gradientUnits="userSpaceOnUse">
            <stop offset="0" stop-color="#111827" />
            <stop offset="0.62" stop-color="#312E81" />
            <stop offset="1" stop-color="#0C4A6E" />
        </linearGradient>
        <linearGradient id="line" x1="0" y1="0" x2="1" y2="1">
            <stop offset="0" stop-color="#67E8F9" stop-opacity="0.45" />
            <stop offset="1" stop-color="#A78BFA" stop-opacity="0.05" />
        </linearGradient>
        <radialGradient id="flare" cx="0" cy="0" r="1" gradientUnits="userSpaceOnUse"
            gradientTransform="translate(930 210) rotate(18) scale(380 220)">
            <stop stop-color="#C4B5FD" stop-opacity="0.45" />
            <stop offset="1" stop-color="#C4B5FD" stop-opacity="0" />
        </radialGradient>
    </defs>

    <rect width="1200" height="700" rx="40" fill="url(#base)" />

    <g opacity="0.6">
        <path d="M0 620H1200" stroke="url(#line)" stroke-width="1.2" />
        <path d="M0 555H1200" stroke="url(#line)" stroke-width="1.2" />
        <path d="M0 490H1200" stroke="url(#line)" stroke-width="1.2" />
        <path d="M0 425H1200" stroke="url(#line)" stroke-width="1.2" />
        <path d="M0 360H1200" stroke="url(#line)" stroke-width="1.2" />
        <path d="M0 295H1200" stroke="url(#line)" stroke-width="1.2" />
    </g>

    <g opacity="0.35">
        <path d="M180 700V250" stroke="#7DD3FC" stroke-width="1.2" />
        <path d="M340 700V250" stroke="#7DD3FC" stroke-width="1.2" />
        <path d="M500 700V250" stroke="#7DD3FC" stroke-width="1.2" />
        <path d="M660 700V250" stroke="#7DD3FC" stroke-width="1.2" />
        <path d="M820 700V250" stroke="#7DD3FC" stroke-width="1.2" />
        <path d="M980 700V250" stroke="#7DD3FC" stroke-width="1.2" />
    </g>

    <path d="M0 700L1200 700L1200 430C1080 465 930 490 760 472C560 450 440 328 260 318C160 313 70 332 0 360V700Z"
        fill="#22D3EE" fill-opacity="0.16" />
    <rect width="1200" height="700" rx="40" fill="url(#flare)" />
</svg>